<?xml version="1.0" encoding="utf-8"?>
<!-- Generator: Adobe Illustrator 22.1.0, SVG Export Plug-In . SVG Version: 6.00 Build 0)  -->
<svg version="1.1" baseProfile="tiny" id="Logo" xmlns="http://www.w3.org/2000/svg" xmlns:xlink="http://www.w3.org/1999/xlink"
	 x="0px" y="0px" viewBox="0 0 395.4 96.4" xml:space="preserve">
<g>
	<path fill="#FFFFFF" d="M338.6,94.7l6.9-17.9h30.7l8,17.9h11.2l-28.8-70.6h-11.1l-28.1,70.6H338.6z M361.1,36l12,31.6h-24.1
		L361.1,36z"/>
	<path id="R" fill="#FFFFFF" d="M307,44.2c0-13-9.3-20.1-26.3-20.1h-23.8v70.6h11.2V65.9h10.2L297,94.7h13L290.5,65
		C300.4,63.4,307,55.1,307,44.2z M268.2,56.6V33.4h11.1c8.1,0,9,0.1,11.4,1.9c2.8,2.1,4.3,5.2,4.3,9.3c0,3.8-1.2,6.7-3.8,9
		c-3.1,2.7-4.6,3-11.8,3H268.2z"/>
	<polygon id="E" fill="#FFFFFF" points="193.4,85.4 193.4,63 220.3,63 220.3,53.8 193.4,53.8 193.4,33.4 225.9,33.4 225.9,24.1 
		193.4,24.1 182.1,24.1 182.1,33.4 182.1,85.4 182.1,94.7 193.4,94.7 226.8,94.7 226.8,85.4 	"/>
	<g id="K">
		<rect id="K_1" x="99.4" y="24.1" fill="#FFFFFF" width="11.2" height="70.6"/>
		<polygon id="K_2" fill="#FFFFFF" points="157.9,24.1 142.9,24.1 114.2,59.4 143.9,94.7 159.7,94.7 128,59.4 		"/>
	</g>
	<path id="O" fill="#FFFFFF" d="M37.1,22.3C16.6,22.3,0,38.9,0,59.4s16.6,37.1,37.1,37.1s37.1-16.6,37.1-37.1S57.5,22.3,37.1,22.3z
		 M37.1,85.2c-14.3,0-25.8-11.6-25.8-25.8s11.6-25.8,25.8-25.8s25.8,11.6,25.8,25.8S51.3,85.2,37.1,85.2z"/>
	<g id="Dots">
		<circle id="Dot_1" fill="#FF5B21" cx="204" cy="4.8" r="4.8"/>
		<circle id="Dot_2" fill="#FF5B21" cx="186.9" cy="4.8" r="4.8"/>
		<circle id="Dot_3" fill="#FF5B21" cx="221.2" cy="4.8" r="4.8"/>
	</g>
</g>
</svg>
